<svg id="Layer_1" data-name="Layer 1" xmlns="http://www.w3.org/2000/svg" xmlns:xlink="http://www.w3.org/1999/xlink" viewBox="0 0 176.13 217.03"><defs><style>.cls-1{fill:none;}.cls-2{fill:#1d1d1b;}.cls-3{fill:#60c4dc;}.cls-4{fill:#00a4be;}.cls-5{clip-path:url(#clip-path);}.cls-6{fill:#00749c;}.cls-7{fill:#fff;}.cls-8{fill:#3c3c3b;}.cls-9{fill:#575756;}.cls-10{fill:#252525;}.cls-11{fill:#fec500;}</style><clipPath id="clip-path" transform="translate(-8.66 -5.09)"><circle class="cls-1" cx="96.08" cy="69.56" r="64.47"/></clipPath></defs><title>BibleMate logo icon</title><path class="cls-2" d="M17.45,157.56c6.47,0,10.15,2.07,10.15,6.56a6,6,0,0,1-4.93,6v.32a6.44,6.44,0,0,1,5.78,6.27c0,4.05-3.15,7.61-9.39,7.61H8.66V157.56Zm-4.29,11.37h3.76c3.6,0,6.27-1.05,6.27-4.21,0-3-3-3.64-6.43-3.64h-3.6Zm0,11.78h5c3.56,0,5.75-1.58,5.75-4.29,0-2.87-2.79-4.37-7-4.37H13.16Z" transform="translate(-8.66 -5.09)"/><path class="cls-2" d="M36.5,157.64a2.73,2.73,0,0,1-2.79,2.75A2.67,2.67,0,0,1,31,157.64a2.73,2.73,0,0,1,2.71-2.79A2.8,2.8,0,0,1,36.5,157.64Zm-.56,5.87v20.8H31.61V164Z" transform="translate(-8.66 -5.09)"/><path class="cls-2" d="M45.91,155.38v8.45a25.68,25.68,0,0,1-.12,3h.28a8.24,8.24,0,0,1,6.76-3.32c4.65,0,8.25,4.09,8.25,9.75,0,6.68-4.53,11.58-11,11.58a21,21,0,0,1-8.54-2.11V155.94Zm0,25.25a9.56,9.56,0,0,0,4.05.81c4.57,0,6.79-3.16,6.79-8.18,0-3.8-2-6.39-5.26-6.39a6.44,6.44,0,0,0-5.58,3.72Z" transform="translate(-8.66 -5.09)"/><path class="cls-2" d="M69.87,155.38v24l.57,4.74-3.93.65-1-4.21V155.94Z" transform="translate(-8.66 -5.09)"/><path class="cls-2" d="M78.46,174.6c0,4.41,2.71,6.84,7.48,6.84a13.85,13.85,0,0,0,6.19-1.38l-.28,3.28a15.69,15.69,0,0,1-6.72,1.46c-6.31,0-10.88-3.73-10.88-10.65,0-6.23,4.33-10.68,10.07-10.68s8.46,3.56,8.46,8.58a14.42,14.42,0,0,1-.24,2.55Zm10.19-3c0-3.35-1.45-5-4.61-5a5.58,5.58,0,0,0-5.5,5.18Z" transform="translate(-8.66 -5.09)"/><path class="cls-2" d="M102.91,157.56l8.9,22.62a6.46,6.46,0,0,1,.33,1.42h.24a6.35,6.35,0,0,1,.32-1.42l8.91-22.62h2.75l3.56,26.75h-2.51l-2.83-23.43h-.21a5.21,5.21,0,0,1-.36,1.46l-8.74,22h-2.19l-8.7-22a5.23,5.23,0,0,1-.32-1.46h-.24l-2.75,23.43H96.6l3.6-26.75Z" transform="translate(-8.66 -5.09)"/><path class="cls-2" d="M133.82,164.77a18.09,18.09,0,0,1,6.55-1.3c5.22,0,7.77,2.1,7.77,5.46v11.54l.49,4-1.82.33-.65-3.2H146a9.11,9.11,0,0,1-7,3.2c-4,0-7.08-2.15-7.08-6.07,0-4.58,3.48-6.56,8-6.56a52.15,52.15,0,0,1,6,.45V169.7c0-2.75-1.3-4.37-5.91-4.37a16.64,16.64,0,0,0-6.43,1.34Zm12.14,9.5a43.75,43.75,0,0,0-5.83-.44c-3.76,0-6,1.46-6,4.77,0,3.16,2.39,4.38,5.38,4.38a7.42,7.42,0,0,0,6.44-3.57Z" transform="translate(-8.66 -5.09)"/><path class="cls-2" d="M157.52,158.33h.57l-.25,5.79h7.53l-.57,1.9-7-.28V177.8c0,3.68.77,5.09,4,5.09a8.26,8.26,0,0,0,3.64-.77l-.12,1.83a12.13,12.13,0,0,1-4.13.85c-4.69,0-5.62-2.84-5.62-6.72l.08-12-3.64-.24v-1.34l3.64-.36.48-5.34Z" transform="translate(-8.66 -5.09)"/><path class="cls-2" d="M169.82,173.71c0,5.87,2.75,9.18,8.34,9.18a11.63,11.63,0,0,0,5.94-1.41l-.2,1.94a14.18,14.18,0,0,1-6.11,1.38c-6,0-10.12-3.89-10.12-10.69,0-6.23,4-10.64,9.27-10.64,5.1,0,7.85,3.32,7.85,8.54a13.64,13.64,0,0,1-.16,1.7ZM182.57,172c0-4.66-1.95-6.68-5.79-6.68-2.87,0-6.23,1.94-6.84,6.84Z" transform="translate(-8.66 -5.09)"/><circle class="cls-3" cx="87.42" cy="64.47" r="64.47"/><path class="cls-4" d="M116.38,83.34a18.33,18.33,0,0,1-.49-6.64l-.43-1.24c-3.16-2.85-6.43-5.54-9.59-8l-5-.63a11.23,11.23,0,0,0-4.52,12.81c2,6.93,17.37,11.22,23.06,12.58C118.2,88,116.81,84.87,116.38,83.34Z" transform="translate(-8.66 -5.09)"/><g class="cls-5"><path class="cls-6" d="M130,43.5s-2.76-13.31-15.32-14.57-32.89.25-42.44,12.56S62,70.62,62,70.62,15,218.28,19,221.8,38,199,38,199s3.68,3,9-.33,19.42-47.89,19.42-47.89S102,153.16,115,130.39s2.68-42.36,1.34-47a20.71,20.71,0,0,1,0-9.71Z" transform="translate(-8.66 -5.09)"/></g><path class="cls-7" d="M116.38,73.63,130,43.5a22.82,22.82,0,0,0-2.52-6.11,7.93,7.93,0,0,0-4.09,2.42c-2.18,2.18-2.18,3.69-2.18,3.69s-4.18-6.11-13.89-6.11c-15.24,0-19.15,7.57-21,13.39-1.43,4.61.52,9,5.54,14.15S115.8,79.66,115.8,79.66h0A22.28,22.28,0,0,1,116.38,73.63Z" transform="translate(-8.66 -5.09)"/><path class="cls-8" d="M135.11,72.09s-1.82,3.3-8,6.19a17.33,17.33,0,0,1-11.33,1.38s-1.1-11.13,3.76-17.91S136.18,68.88,135.11,72.09Z" transform="translate(-8.66 -5.09)"/><path class="cls-9" d="M130,43.5a18.32,18.32,0,0,1,11.3,14.9c1.51,11.55-4.77,18-4.77,18s-.92-6.12-4.94-8-11.72,1.18-13.39-1.67S123.07,47,130,43.5Z" transform="translate(-8.66 -5.09)"/><circle class="cls-10" cx="100.49" cy="47.38" r="6.05"/><path class="cls-7" d="M109.35,50.37a2.44,2.44,0,1,1-2.43-2.44A2.43,2.43,0,0,1,109.35,50.37Z" transform="translate(-8.66 -5.09)"/><g class="cls-5"><path class="cls-11" d="M115,130.39c13.06-22.77,2.68-42.36,1.34-47a19,19,0,0,1-.42-7.42A200.7,200.7,0,0,0,85.85,53.79L74.4,116.58,59,141.69,38,199s3.68,3,9-.33,19.42-47.89,19.42-47.89S102,153.16,115,130.39Z" transform="translate(-8.66 -5.09)"/></g><g class="cls-5"><path class="cls-4" d="M18.78,149.47s21.92-49.89,34-67.63,40.86-19.27,48.05,3.09S98.05,125,74.4,139.09,18.78,149.47,18.78,149.47Z" transform="translate(-8.66 -5.09)"/></g></svg>