<svg xmlns="http://www.w3.org/2000/svg" viewBox="0 0 25.708 21.05"><defs><style>.a{fill:#454f63;}</style></defs><g transform="translate(-330.292 -235.656)"><path class="a" d="M225.829,137.416V125.035a.415.415,0,0,0-.829,0v12.382a.415.415,0,1,0,.829,0Z" transform="translate(117.731 115.597)"/><path class="a" d="M25.294,43.987a10.759,10.759,0,0,1-3.126-.779,15.015,15.015,0,0,0-4.847-1.082,4.954,4.954,0,0,0-4.467,2.4,4.954,4.954,0,0,0-4.467-2.4A15.014,15.014,0,0,0,3.54,43.208a10.761,10.761,0,0,1-3.126.779A.415.415,0,0,0,0,44.4V61.1a.415.415,0,0,0,.415.415,11.244,11.244,0,0,0,3.4-.824,14.384,14.384,0,0,1,4.575-1.036,4.223,4.223,0,0,1,3.264,1.335.415.415,0,1,0,.612-.559,5.054,5.054,0,0,0-3.876-1.605A15.014,15.014,0,0,0,3.54,59.91a13.838,13.838,0,0,1-2.711.754V44.8a13.714,13.714,0,0,0,2.982-.8,14.384,14.384,0,0,1,4.575-1.036A4.091,4.091,0,0,1,12.458,45.6a.415.415,0,0,0,.793,0,4.13,4.13,0,0,1,4.071-2.648A14.384,14.384,0,0,1,21.9,43.992a13.712,13.712,0,0,0,2.982.8V60.663a13.841,13.841,0,0,1-2.711-.754,15.014,15.014,0,0,0-4.847-1.082,5.053,5.053,0,0,0-3.876,1.605.415.415,0,1,0,.612.559,4.223,4.223,0,0,1,3.264-1.335A14.384,14.384,0,0,1,21.9,60.693a11.245,11.245,0,0,0,3.4.824.415.415,0,0,0,.415-.415V44.4A.415.415,0,0,0,25.294,43.987Z" transform="translate(330.292 193.53)"/><path class="a" d="M25.294,376.079a10.759,10.759,0,0,1-3.126-.779,15.014,15.014,0,0,0-4.847-1.082,5.08,5.08,0,0,0-3.748,1.47H12.135a5.081,5.081,0,0,0-3.748-1.47A15.014,15.014,0,0,0,3.54,375.3a10.759,10.759,0,0,1-3.126.779.415.415,0,1,0,0,.829,11.243,11.243,0,0,0,3.4-.824,14.384,14.384,0,0,1,4.575-1.036,4.223,4.223,0,0,1,3.264,1.335.415.415,0,0,0,.306.135h1.794a.415.415,0,0,0,.306-.135,4.223,4.223,0,0,1,3.264-1.335,14.383,14.383,0,0,1,4.575,1.036,11.245,11.245,0,0,0,3.4.824.415.415,0,0,0,0-.829Z" transform="translate(330.292 -120.201)"/></g></svg>