<svg xmlns="http://www.w3.org/2000/svg" viewBox="0 0 111.487 96.96"><defs><style>.a{fill:#3c3c3b;}.b{fill:#575756;}.c{fill:#00a4be;}.d{fill:#fec500;}.e{fill:#fff;}.f{fill:#60c4dc;}.g{fill:#ffd500;}.h{fill:#252525;}.i{fill:#182a43;}.j{fill:#00749c;}</style></defs><g transform="translate(0.003 -0.005)"><g transform="translate(-0.003 0.005)"><g transform="translate(33.46 55.881)"><rect class="a" width="4.15" height="15.853" transform="matrix(0.966, -0.257, 0.257, 0.966, 0.887, 1.065)"/><path class="a" d="M83.615,142.94h-11a3.287,3.287,0,0,0-3.287,3.286H86.9A3.284,3.284,0,0,0,83.615,142.94Z" transform="translate(-69.33 -129.841)"/><path class="b" d="M85.084,142.94H79.747a3.287,3.287,0,0,0-3.287,3.286H88.371A3.284,3.284,0,0,0,85.084,142.94Z" transform="translate(-73.019 -129.841)"/></g><g transform="translate(23.861 55.882)"><rect class="a" width="4.15" height="15.853" transform="matrix(0.966, -0.257, 0.257, 0.966, 0.882, 1.065)"/><path class="a" d="M63.72,142.94H52.727a3.287,3.287,0,0,0-3.287,3.286H67.011A3.291,3.291,0,0,0,63.72,142.94Z" transform="translate(-49.44 -129.841)"/><path class="b" d="M65.184,142.94H59.847a3.287,3.287,0,0,0-3.287,3.286H68.471A3.284,3.284,0,0,0,65.184,142.94Z" transform="translate(-53.124 -129.841)"/></g><path class="c" d="M55.724,7.483S54.339.813,48.051.186,31.57.311,26.792,6.474s-5.159,14.594-5.159,14.594S-1.893,95.041.119,96.8,9.636,85.4,9.636,85.4s1.844,1.511,4.527-.169,9.729-23.985,9.729-23.985,17.779,1.173,24.323-10.231,1.342-21.22.671-23.565a10.378,10.378,0,0,1,0-4.865Z" transform="translate(0.003 -0.005)"/><path class="d" d="M58.559,64.552c6.544-11.409,1.342-21.22.671-23.565a9.6,9.6,0,0,1-.208-3.721A100.7,100.7,0,0,0,43.941,26.18L38.2,57.631,30.462,70.212,19.98,98.937s1.844,1.511,4.527-.169,9.729-23.985,9.729-23.985S52.015,75.96,58.559,64.552Z" transform="translate(-10.336 -13.548)"/><path class="c" d="M90.277,48a9.224,9.224,0,0,1-.241-3.33l-.217-.618c-1.583-1.433-3.219-2.775-4.8-4l-2.5-.314a5.619,5.619,0,0,0-2.263,6.414c1.023,3.475,8.7,5.622,11.553,6.3C91.189,50.319,90.494,48.765,90.277,48Z" transform="translate(-41.383 -20.564)"/><path class="e" d="M84.959,27.31l6.834-15.1a11.318,11.318,0,0,0-1.264-3.06,3.988,3.988,0,0,0-2.046,1.211,3.022,3.022,0,0,0-1.091,1.844,8.473,8.473,0,0,0-6.959-3.06c-7.63,0-9.594,3.793-10.5,6.708-.714,2.312.261,4.488,2.78,7.085s11.959,7.379,11.959,7.379h0A11.033,11.033,0,0,1,84.959,27.31Z" transform="translate(-36.065 -4.736)"/><path class="a" d="M110.324,38.635s-.912,1.65-4,3.1a8.672,8.672,0,0,1-5.675.69s-.55-5.574,1.882-8.972S110.86,37.023,110.324,38.635Z" transform="translate(-52.049 -16.833)"/><path class="b" d="M108.989,15.5a9.184,9.184,0,0,1,5.661,7.466,11.243,11.243,0,0,1-2.389,9.015s-.463-3.06-2.476-3.981-5.868.589-6.708-.84S105.51,17.261,108.989,15.5Z" transform="translate(-53.262 -8.022)"/><path class="f" d="M0,81.923S10.984,56.93,17.021,48.04s20.472-9.652,24.072,1.549S39.708,69.68,27.861,76.726,0,81.923,0,81.923Z" transform="translate(0.001 -21.359)"/><g transform="translate(40.443 7.854)"><circle class="g" cx="4.121" cy="4.121" r="4.121"/><circle class="h" cx="3.031" cy="3.031" r="3.031" transform="translate(1.805 1.091)"/><path class="e" d="M91.4,21.321A1.221,1.221,0,1,1,90.181,20.1,1.219,1.219,0,0,1,91.4,21.321Z" transform="translate(-86.47 -18.256)"/></g></g><g transform="translate(62.74 19.612)"><g transform="translate(8.307 44.284)"><rect class="a" width="3.291" height="12.562" transform="matrix(-0.966, -0.257, 0.257, -0.966, 9.997, 12.986)"/><path class="a" d="M149.821,153.9h8.716a2.607,2.607,0,0,1,2.606,2.606H147.22A2.6,2.6,0,0,1,149.821,153.9Z" transform="translate(-147.22 -143.521)"/><path class="b" d="M153.466,153.9h4.228a2.607,2.607,0,0,1,2.606,2.606h-9.44A2.608,2.608,0,0,1,153.466,153.9Z" transform="translate(-149.103 -143.521)"/></g><g transform="translate(15.917 44.284)"><rect class="a" width="3.291" height="12.562" transform="matrix(-0.966, -0.257, 0.257, -0.966, 9.995, 12.986)"/><path class="a" d="M165.591,153.9h8.716a2.607,2.607,0,0,1,2.606,2.606H162.99A2.6,2.6,0,0,1,165.591,153.9Z" transform="translate(-162.99 -143.521)"/><path class="b" d="M169.236,153.9h4.228a2.607,2.607,0,0,1,2.606,2.606h-9.44A2.607,2.607,0,0,1,169.236,153.9Z" transform="translate(-164.873 -143.521)"/></g><path class="i" d="M139.5,46.558s1.1-5.284,6.081-5.782,13.059.1,16.848,4.985,4.088,11.563,4.088,11.563,18.643,58.621,17.045,60.016-7.543-9.039-7.543-9.039a3.075,3.075,0,0,1-3.591-.135c-2.128-1.332-7.712-19.01-7.712-19.01s-14.092.931-19.275-8.108-1.062-16.814-.531-18.677a8.24,8.24,0,0,0,0-3.856Z" transform="translate(-134.919 -40.633)"/><path class="d" d="M149.058,91.789c-5.183-9.039-1.062-16.814-.531-18.677a7.532,7.532,0,0,0,.164-2.949,79.922,79.922,0,0,1,11.954-8.783L165.191,86.3l6.134,9.971,8.306,22.764a3.075,3.075,0,0,1-3.591-.135c-2.128-1.332-7.712-19.01-7.712-19.01S154.241,100.823,149.058,91.789Z" transform="translate(-138.526 -51.367)"/><path class="i" d="M149.426,78.669a7.28,7.28,0,0,0,.193-2.64l.174-.492c1.255-1.134,2.548-2.2,3.808-3.171l1.979-.246a4.461,4.461,0,0,1,1.8,5.082c-.811,2.756-6.9,4.454-9.155,4.995C148.7,80.5,149.258,79.272,149.426,78.669Z" transform="translate(-139.431 -56.924)"/><path class="e" d="M144.915,62.276,139.5,50.313a8.954,8.954,0,0,1,1-2.423,3.125,3.125,0,0,1,1.622.96,2.4,2.4,0,0,1,.864,1.462,6.718,6.718,0,0,1,5.516-2.423c6.047,0,7.6,3.007,8.315,5.313.565,1.829-.208,3.557-2.2,5.617s-9.478,5.849-9.478,5.849h0A8.69,8.69,0,0,0,144.915,62.276Z" transform="translate(-134.919 -44.388)"/><path class="a" d="M135.291,71.246a7.053,7.053,0,0,0,3.166,2.456,6.857,6.857,0,0,0,4.5.545s.439-4.421-1.491-7.109S134.866,69.972,135.291,71.246Z" transform="translate(-132.727 -53.97)"/><path class="b" d="M134.589,52.91a7.274,7.274,0,0,0-4.488,5.917,8.891,8.891,0,0,0,1.892,7.142s.367-2.427,1.959-3.156,4.652.463,5.318-.666S137.349,54.3,134.589,52.91Z" transform="translate(-130.008 -46.985)"/><path class="j" d="M195.118,105.556S186.412,85.75,181.629,78.7s-16.22-7.649-19.077,1.226,1.1,15.921,10.487,21.5S195.118,105.556,195.118,105.556Z" transform="translate(-146.374 -57.558)"/><g transform="translate(10.16 6.219)"><circle class="g" cx="3.267" cy="3.267" r="3.267"/><circle class="h" cx="2.403" cy="2.403" r="2.403" transform="translate(0.299 0.864)"/><path class="e" d="M156.5,57.525a.965.965,0,1,0,.965-.965A.965.965,0,0,0,156.5,57.525Z" transform="translate(-153.875 -55.093)"/></g></g></g></svg>